<svg width="31" height="31" viewBox="0 0 31 31" fill="none" xmlns="http://www.w3.org/2000/svg">
<path d="M11.1175 2.76074L6.59253 7.29824" stroke="black" stroke-width="2.25" stroke-miterlimit="10" stroke-linecap="round" stroke-linejoin="round"/>
<path d="M19.092 2.76074L23.617 7.29824" stroke="black" stroke-width="2.25" stroke-miterlimit="10" stroke-linecap="round" stroke-linejoin="round"/>
<path d="M2.60449 10.0732C2.60449 7.76074 3.84199 7.57324 5.37949 7.57324H24.8295C26.367 7.57324 27.6045 7.76074 27.6045 10.0732C27.6045 12.7607 26.367 12.5732 24.8295 12.5732H5.37949C3.84199 12.5732 2.60449 12.7607 2.60449 10.0732Z" stroke="black" stroke-width="2.25"/>
<path d="M12.3047 17.7607V22.1982" stroke="black" stroke-width="2.25" stroke-linecap="round"/>
<path d="M18.0549 17.7607V22.1982" stroke="black" stroke-width="2.25" stroke-linecap="round"/>
<path d="M4.47949 12.7607L6.24199 23.5607C6.64199 25.9857 7.60449 27.7607 11.1795 27.7607H18.717C22.6045 27.7607 23.1795 26.0607 23.6295 23.7107L25.7295 12.7607" stroke="black" stroke-width="2.25" stroke-linecap="round"/>
</svg>
