<svg width="614" height="129" viewBox="0 0 614 129" fill="none" xmlns="http://www.w3.org/2000/svg">
<path d="M25.46 126.523V11.3234L38.06 23.9234H0.26V0.523429H54.62V126.523H25.46ZM121.148 128.683C112.388 128.683 103.688 127.543 95.0483 125.263C86.5283 122.863 79.2083 119.503 73.0883 115.183L84.6083 92.8634C89.4083 96.3434 94.9283 99.1034 101.168 101.143C107.528 103.183 113.948 104.203 120.428 104.203C127.748 104.203 133.508 102.763 137.708 99.8834C141.908 97.0034 144.008 92.9834 144.008 87.8234C144.008 84.5834 143.168 81.7034 141.488 79.1834C139.808 76.6634 136.808 74.7434 132.488 73.4234C128.288 72.1034 122.348 71.4434 114.668 71.4434H82.4483L88.9283 0.523429H165.788V23.9234H99.3683L114.488 10.6034L109.988 61.1834L94.8683 47.8634H121.508C133.988 47.8634 144.008 49.6034 151.568 53.0834C159.248 56.4434 164.828 61.0634 168.308 66.9434C171.788 72.8234 173.528 79.4834 173.528 86.9234C173.528 94.3634 171.668 101.263 167.948 107.623C164.228 113.863 158.468 118.963 150.668 122.923C142.988 126.763 133.148 128.683 121.148 128.683ZM249.836 128.503C247.676 128.503 245.396 128.323 242.996 127.963C240.716 127.603 238.196 127.123 235.436 126.523L237.236 101.863C238.916 102.343 240.656 102.583 242.456 102.583C247.376 102.583 251.216 100.603 253.976 96.6434C256.736 92.5634 258.716 86.7434 259.916 79.1834C261.116 71.6234 261.896 62.4434 262.256 51.6434L264.056 0.523429H360.896V126.523H332.096V17.6234L338.756 24.2834H283.136L289.076 17.2634L287.996 50.5634C287.636 62.9234 286.796 73.9034 285.476 83.5034C284.156 93.1034 282.116 101.263 279.356 107.983C276.596 114.703 272.816 119.803 268.016 123.283C263.216 126.763 257.156 128.503 249.836 128.503ZM420.985 51.2834H481.645V73.9634H420.985V51.2834ZM423.145 103.123H491.725V126.523H394.165V0.523429H489.385V23.9234H423.145V103.123ZM544.258 126.523V17.6234L550.918 24.2834H504.118V0.523429H613.378V24.2834H566.578L573.058 17.6234V126.523H544.258Z" fill="#131B22"/>
</svg>
