<svg width="155" height="44" viewBox="0 0 155 44" fill="none" xmlns="http://www.w3.org/2000/svg">
<path d="M18.1225 25.8689C18.1225 25.2737 18.0304 24.7422 17.8461 24.2746C17.6761 23.7927 17.3572 23.3605 16.8895 22.9779C16.436 22.581 15.7912 22.1984 14.9551 21.8299C14.1331 21.4473 13.0703 21.0505 11.7665 20.6395C10.321 20.186 8.97466 19.6759 7.72755 19.109C6.48044 18.5421 5.38214 17.8831 4.43264 17.132C3.49731 16.3809 2.76747 15.5165 2.24312 14.5386C1.71876 13.5466 1.45659 12.3987 1.45659 11.0949C1.45659 9.81946 1.72585 8.65738 2.26437 7.60868C2.81707 6.55997 3.59651 5.66007 4.6027 4.90897C5.60889 4.1437 6.79222 3.55558 8.1527 3.1446C9.52735 2.73362 11.0437 2.52813 12.7018 2.52813C14.9976 2.52813 16.9817 2.9462 18.6539 3.78233C20.3403 4.61845 21.6441 5.75219 22.5653 7.18353C23.4864 8.61487 23.947 10.2233 23.947 12.009H18.1225C18.1225 11.0453 17.917 10.195 17.506 9.45808C17.1092 8.72115 16.4998 8.14011 15.6779 7.71496C14.8701 7.28981 13.8497 7.07724 12.6168 7.07724C11.4264 7.07724 10.4343 7.25438 9.64073 7.60868C8.86129 7.96297 8.27316 8.44481 7.87635 9.05419C7.49372 9.66357 7.3024 10.3438 7.3024 11.0949C7.3024 11.6618 7.43703 12.172 7.70629 12.6254C7.97556 13.0648 8.37945 13.4828 8.91797 13.8796C9.4565 14.2623 10.1226 14.6237 10.9162 14.9638C11.724 15.2897 12.6593 15.6157 13.7222 15.9416C15.4228 16.4518 16.9108 17.0187 18.1862 17.6422C19.4759 18.2658 20.5458 18.9744 21.3961 19.768C22.2606 20.5616 22.9054 21.4544 23.3306 22.4464C23.7699 23.4384 23.9895 24.5651 23.9895 25.8264C23.9895 27.1585 23.7274 28.3489 23.203 29.3976C22.6787 30.4463 21.9276 31.3391 20.9497 32.0761C19.9719 32.813 18.7956 33.3728 17.421 33.7554C16.0605 34.138 14.537 34.3294 12.8506 34.3294C11.3484 34.3294 9.86039 34.131 8.38653 33.7342C6.92685 33.3232 5.6018 32.7138 4.41138 31.906C3.22096 31.084 2.27146 30.0495 1.56288 28.8024C0.854292 27.5411 0.5 26.0673 0.5 24.3808H6.36707C6.36707 25.3587 6.52296 26.1948 6.83474 26.8892C7.16068 27.5695 7.61418 28.1293 8.19522 28.5686C8.79043 28.9937 9.48484 29.3055 10.2785 29.5039C11.0721 29.7023 11.9295 29.8015 12.8506 29.8015C14.041 29.8015 15.0189 29.6385 15.7841 29.3126C16.5636 28.9725 17.1446 28.5048 17.5273 27.9096C17.9241 27.3144 18.1225 26.6341 18.1225 25.8689Z" fill="#00275B"/>
<path d="M33.683 15.3252V42.7473H28.0497V10.9036H33.2578L33.683 15.3252ZM48.4569 22.1701V22.6165C48.4569 24.2887 48.2585 25.8405 47.8617 27.2719C47.4791 28.689 46.9122 29.9291 46.1611 30.9919C45.41 32.0406 44.4747 32.8626 43.3551 33.4578C42.2497 34.0388 40.9743 34.3294 39.5288 34.3294C38.1116 34.3294 36.8787 34.0601 35.83 33.5216C34.7813 32.9689 33.8955 32.1894 33.1728 31.1833C32.45 30.1771 31.869 29.0079 31.4297 27.6758C31.0045 26.3295 30.6857 24.8627 30.4731 23.2755V21.8512C30.6857 20.1648 31.0045 18.6342 31.4297 17.2596C31.869 15.8708 32.45 14.6733 33.1728 13.6671C33.8955 12.6467 34.7742 11.8602 35.8087 11.3075C36.8574 10.7548 38.0833 10.4784 39.4863 10.4784C40.9459 10.4784 42.2285 10.7548 43.3339 11.3075C44.4534 11.8602 45.3959 12.6538 46.1611 13.6883C46.9264 14.7229 47.5003 15.9558 47.883 17.3871C48.2656 18.8185 48.4569 20.4128 48.4569 22.1701ZM42.8237 22.6165V22.1701C42.8237 21.1497 42.7316 20.2073 42.5473 19.3428C42.3631 18.4642 42.0797 17.6989 41.697 17.047C41.3144 16.3809 40.8184 15.8637 40.209 15.4952C39.5996 15.1267 38.8627 14.9425 37.9982 14.9425C37.1338 14.9425 36.3898 15.0842 35.7662 15.3677C35.1426 15.6511 34.6325 16.055 34.2357 16.5793C33.8389 17.1037 33.5271 17.7272 33.3003 18.45C33.0878 19.1586 32.946 19.9451 32.8752 20.8096V24.3383C33.0027 25.387 33.2507 26.3295 33.6192 27.1656C33.9877 28.0017 34.5262 28.6678 35.2348 29.1638C35.9575 29.6598 36.8928 29.9078 38.0408 29.9078C38.9052 29.9078 39.6422 29.7165 40.2515 29.3338C40.8609 28.9512 41.3569 28.4269 41.7396 27.7608C42.1222 27.0806 42.3985 26.3011 42.5686 25.4225C42.7387 24.5438 42.8237 23.6085 42.8237 22.6165Z" fill="#00275B"/>
<path d="M51.5605 22.6377V22.1913C51.5605 20.5049 51.8014 18.9531 52.2833 17.5359C52.7651 16.1046 53.4666 14.8646 54.3878 13.8159C55.3089 12.7672 56.4356 11.9523 57.7677 11.3713C59.0999 10.776 60.6162 10.4784 62.3168 10.4784C64.0458 10.4784 65.5763 10.776 66.9084 11.3713C68.2548 11.9523 69.3885 12.7672 70.3096 13.8159C71.2308 14.8646 71.9323 16.1046 72.4141 17.5359C72.896 18.9531 73.1369 20.5049 73.1369 22.1913V22.6377C73.1369 24.31 72.896 25.8618 72.4141 27.2931C71.9323 28.7103 71.2308 29.9503 70.3096 31.0132C69.3885 32.0619 68.2618 32.8768 66.9297 33.4578C65.5976 34.0388 64.0741 34.3294 62.3593 34.3294C60.6587 34.3294 59.1353 34.0388 57.789 33.4578C56.4427 32.8768 55.3089 32.0619 54.3878 31.0132C53.4666 29.9503 52.7651 28.7103 52.2833 27.2931C51.8014 25.8618 51.5605 24.31 51.5605 22.6377ZM57.1725 22.1913V22.6377C57.1725 23.6439 57.2717 24.5863 57.4701 25.465C57.6685 26.3436 57.9732 27.116 58.3842 27.7821C58.7952 28.4481 59.3266 28.9725 59.9785 29.3551C60.6446 29.7236 61.4382 29.9078 62.3593 29.9078C63.2663 29.9078 64.0458 29.7236 64.6977 29.3551C65.3496 28.9725 65.881 28.4481 66.292 27.7821C66.7171 27.116 67.0289 26.3436 67.2273 25.465C67.4257 24.5863 67.5249 23.6439 67.5249 22.6377V22.1913C67.5249 21.1993 67.4257 20.2711 67.2273 19.4066C67.0289 18.5279 66.7171 17.7556 66.292 17.0895C65.881 16.4093 65.3425 15.8778 64.6764 15.4952C64.0245 15.0984 63.238 14.9 62.3168 14.9C61.4098 14.9 60.6304 15.0984 59.9785 15.4952C59.3266 15.8778 58.7952 16.4093 58.3842 17.0895C57.9732 17.7556 57.6685 18.5279 57.4701 19.4066C57.2717 20.2711 57.1725 21.1993 57.1725 22.1913Z" fill="#00275B"/>
<path d="M82.8303 15.6015V33.9042H77.2183V10.9036H82.5327L82.8303 15.6015ZM89.824 10.7548L89.739 15.9841C89.4272 15.9274 89.0729 15.8849 88.6761 15.8566C88.2935 15.8282 87.9321 15.8141 87.592 15.8141C86.7275 15.8141 85.9693 15.9345 85.3174 16.1755C84.6656 16.4022 84.1199 16.7352 83.6806 17.1746C83.2555 17.6139 82.9295 18.1524 82.7028 18.7901C82.476 19.4137 82.3485 20.1223 82.3201 20.9159L81.1085 20.7671C81.1085 19.3074 81.2573 17.954 81.5549 16.7069C81.8525 15.4598 82.2847 14.3686 82.8516 13.4332C83.4184 12.4979 84.127 11.7751 84.9773 11.265C85.8418 10.7406 86.8338 10.4784 87.9534 10.4784C88.2652 10.4784 88.5982 10.5068 88.9525 10.5635C89.3209 10.606 89.6115 10.6698 89.824 10.7548Z" fill="#00275B"/>
<path d="M104.853 10.9036V14.9425H91.6734V10.9036H104.853ZM95.2022 5.24909H100.835V27.2719C100.835 27.9521 100.928 28.4765 101.112 28.8449C101.296 29.2134 101.572 29.4614 101.941 29.5889C102.309 29.7165 102.749 29.7803 103.259 29.7803C103.627 29.7803 103.967 29.759 104.279 29.7165C104.591 29.674 104.853 29.6315 105.066 29.5889L105.087 33.7979C104.619 33.9538 104.088 34.0814 103.493 34.1806C102.912 34.2798 102.253 34.3294 101.516 34.3294C100.254 34.3294 99.149 34.1168 98.1995 33.6916C97.25 33.2523 96.5131 32.5508 95.9887 31.5871C95.4644 30.6093 95.2022 29.3197 95.2022 27.7183V5.24909Z" fill="#00275B"/>
<path d="M114.547 10.9036V33.9042H108.913V10.9036H114.547ZM108.531 4.88772C108.531 4.05159 108.814 3.35718 109.381 2.80448C109.962 2.25178 110.741 1.97544 111.719 1.97544C112.697 1.97544 113.469 2.25178 114.036 2.80448C114.617 3.35718 114.908 4.05159 114.908 4.88772C114.908 5.70967 114.617 6.397 114.036 6.94969C113.469 7.50239 112.697 7.77874 111.719 7.77874C110.741 7.77874 109.962 7.50239 109.381 6.94969C108.814 6.397 108.531 5.70967 108.531 4.88772Z" fill="#00275B"/>
<path d="M127.258 33.9042H121.604V8.77784C121.604 7.0489 121.937 5.5963 122.603 4.42005C123.269 3.22963 124.219 2.32973 125.452 1.72035C126.685 1.11097 128.137 0.806274 129.809 0.806274C130.362 0.806274 130.886 0.841704 131.382 0.912562C131.893 0.98342 132.396 1.08262 132.892 1.21017L132.785 5.48293C132.516 5.41207 132.219 5.36247 131.893 5.33412C131.581 5.30578 131.234 5.29161 130.851 5.29161C130.086 5.29161 129.434 5.42624 128.895 5.6955C128.357 5.96476 127.946 6.36157 127.662 6.88592C127.393 7.3961 127.258 8.02674 127.258 8.77784V33.9042ZM131.914 10.9036V14.9425H118.139V10.9036H131.914Z" fill="#00275B"/>
<path d="M142.117 31.3533L148.282 10.9036H154.298L145.072 37.3904C144.86 37.9573 144.583 38.5738 144.243 39.2398C143.917 39.9059 143.478 40.5366 142.925 41.1318C142.373 41.7411 141.678 42.2372 140.842 42.6198C140.02 43.0024 139.021 43.1937 137.845 43.1937C137.335 43.1937 136.881 43.1583 136.484 43.0875C136.087 43.0166 135.669 42.9245 135.23 42.8111V38.6021C135.372 38.6163 135.535 38.6234 135.719 38.6234C135.917 38.6376 136.087 38.6446 136.229 38.6446C137.051 38.6446 137.731 38.5454 138.27 38.347C138.808 38.1628 139.241 37.8581 139.567 37.433C139.907 37.022 140.19 36.4835 140.417 35.8174L142.117 31.3533ZM139.078 10.9036L144.286 27.8458L145.2 33.7767L141.331 34.4782L133.019 10.9036H139.078Z" fill="#00275B"/>
</svg>
