<svg width="31" height="31" viewBox="0 0 31 31" fill="none" xmlns="http://www.w3.org/2000/svg">
<g clip-path="url(#clip0_35_14548)">
<path fill-rule="evenodd" clip-rule="evenodd" d="M9.72524 12.0431L12.6809 9.08624C12.8551 8.91222 12.9933 8.70558 13.0875 8.47812C13.1818 8.25066 13.2304 8.00684 13.2304 7.76062C13.2304 7.51439 13.1818 7.27058 13.0875 7.04312C12.9933 6.81566 12.8551 6.60901 12.6809 6.43499L7.68086 1.43499C7.50684 1.26079 7.3002 1.1226 7.07274 1.02831C6.84528 0.934028 6.60146 0.885498 6.35524 0.885498C6.10901 0.885498 5.8652 0.934028 5.63774 1.02831C5.41028 1.1226 5.20363 1.26079 5.02961 1.43499L2.22149 4.24249C1.6935 4.77054 1.30939 5.42488 1.10569 6.14329C0.901994 6.8617 0.885486 7.62028 1.05774 8.34687L1.06336 8.36874C1.70399 10.9287 3.57274 16.38 8.77961 21.5862C13.9871 26.7937 19.4396 28.6631 22.0009 29.2994L22.0196 29.3044C22.7456 29.4765 23.5036 29.4601 24.2214 29.2566C24.9393 29.0531 25.5932 28.6694 26.1209 28.1419C27.2321 27.0356 28.9309 25.3362 28.9309 25.3362C29.1051 25.1622 29.2433 24.9556 29.3375 24.7281C29.4318 24.5007 29.4804 24.2568 29.4804 24.0106C29.4804 23.7644 29.4318 23.5206 29.3375 23.2931C29.2433 23.0657 29.1051 22.859 28.9309 22.685L23.9309 17.685C23.7568 17.5108 23.5502 17.3726 23.3227 17.2783C23.0953 17.184 22.8515 17.1355 22.6052 17.1355C22.359 17.1355 22.1152 17.184 21.8877 17.2783C21.6603 17.3726 21.4536 17.5108 21.2796 17.685L18.3234 20.6412C17.3077 20.23 15.504 19.2575 13.3059 17.06C11.1084 14.8619 10.1359 13.0581 9.72524 12.0431ZM6.79711 2.31874L11.7971 7.31874C11.8552 7.37673 11.9013 7.44561 11.9327 7.52143C11.9642 7.59725 11.9804 7.67853 11.9804 7.76062C11.9804 7.8427 11.9642 7.92398 11.9327 7.9998C11.9013 8.07562 11.8552 8.1445 11.7971 8.20249L8.64711 11.3525C8.31149 11.6887 8.39836 12.0544 8.40774 12.0887C8.74649 13.0756 9.72211 15.2437 12.4221 17.9437C15.1252 20.6469 17.2946 21.6212 18.2777 21.9587C18.3884 21.9967 18.5076 22.0029 18.6216 21.9765C18.7357 21.9501 18.84 21.8922 18.9227 21.8094L22.1634 18.5687C22.2214 18.5106 22.2902 18.4646 22.3661 18.4331C22.4419 18.4017 22.5232 18.3855 22.6052 18.3855C22.6873 18.3855 22.7686 18.4017 22.8444 18.4331C22.9202 18.4646 22.9891 18.5106 23.0471 18.5687L28.0471 23.5687C28.1052 23.6267 28.1513 23.6956 28.1827 23.7714C28.2142 23.8473 28.2304 23.9285 28.2304 24.0106C28.2304 24.0927 28.2142 24.174 28.1827 24.2498C28.1513 24.3256 28.1052 24.3945 28.0471 24.4525C28.0471 24.4525 26.3496 26.15 25.2377 27.2569L25.2365 27.2581C24.8589 27.6355 24.391 27.9097 23.8772 28.0547C23.3635 28.1997 22.8212 28.2105 22.3021 28.0862C19.8527 27.4775 14.6434 25.6825 9.66336 20.7025C4.68399 15.7231 2.88836 10.5137 2.27586 8.06562L2.27399 8.05812C2.1509 7.53919 2.16267 6.99741 2.30817 6.48432C2.45367 5.97124 2.72807 5.50392 3.10524 5.12687L5.91336 2.31874C5.97135 2.26065 6.04023 2.21456 6.11605 2.18312C6.19187 2.15168 6.27315 2.13549 6.35524 2.13549C6.43732 2.13549 6.5186 2.15168 6.59442 2.18312C6.67024 2.21456 6.73912 2.26065 6.79711 2.31874Z" fill="black" stroke="black"/>
</g>
<defs>
<clipPath id="clip0_35_14548">
<rect width="30" height="30" fill="white" transform="translate(0.104736 0.260742)"/>
</clipPath>
</defs>
</svg>
