<svg width="22" height="27" viewBox="0 0 22 27" fill="none" xmlns="http://www.w3.org/2000/svg">
<path d="M20.8547 25.2607L20.8547 24.0042C20.8547 22.5392 20.8547 21.8068 20.6858 21.2077C20.2608 19.7008 19.0831 18.5231 17.5762 18.0982C16.9772 17.9292 16.2447 17.9292 14.7797 17.9292H7.42974C5.96479 17.9292 5.23231 17.9292 4.63325 18.0982C3.12636 18.5231 1.94868 19.7008 1.52369 21.2077C1.35474 21.8068 1.35474 22.5392 1.35474 24.0042L1.35474 25.2607M17.2147 6.67877C17.2147 9.67107 14.7702 12.0968 11.7547 12.0968C8.73926 12.0968 6.29474 9.67107 6.29474 6.67877C6.29474 3.68648 8.73926 1.26074 11.7547 1.26074C14.7702 1.26074 17.2147 3.68648 17.2147 6.67877Z" stroke="black" stroke-width="2.25" stroke-linecap="round" stroke-linejoin="round"/>
</svg>
