<svg width="17" height="17" viewBox="0 0 17 17" fill="none" xmlns="http://www.w3.org/2000/svg">
<g clip-path="url(#clip0_35_14168)">
<path d="M14.1809 15.518C14.507 15.8441 15.0357 15.8441 15.3618 15.518C15.6878 15.1919 15.6878 14.6632 15.3618 14.3371L14.1809 15.518ZM11.5834 7.08443C11.5834 9.65543 9.49918 11.7396 6.92818 11.7396V13.4096C10.4215 13.4096 13.2534 10.5777 13.2534 7.08443H11.5834ZM6.92818 11.7396C4.35719 11.7396 2.27299 9.65543 2.27299 7.08443H0.602988C0.602988 10.5777 3.43488 13.4096 6.92818 13.4096V11.7396ZM2.27299 7.08443C2.27299 4.51344 4.35719 2.42924 6.92818 2.42924V0.759238C3.43488 0.759238 0.602988 3.59113 0.602988 7.08443H2.27299ZM6.92818 2.42924C9.49918 2.42924 11.5834 4.51344 11.5834 7.08443H13.2534C13.2534 3.59113 10.4215 0.759238 6.92818 0.759238V2.42924ZM10.2593 11.5964L14.1809 15.518L15.3618 14.3371L11.4402 10.4156L10.2593 11.5964Z" fill="black"/>
</g>
<defs>
<clipPath id="clip0_35_14168">
<rect width="16" height="16" fill="white" transform="translate(0.104736 0.260742)"/>
</clipPath>
</defs>
</svg>
