<svg width="49" height="49" viewBox="0 0 49 49" fill="none" xmlns="http://www.w3.org/2000/svg">
<rect x="0.104736" y="0.0117188" width="48" height="48" rx="24" fill="#B2D5FF" fill-opacity="0.5"/>
<path fill-rule="evenodd" clip-rule="evenodd" d="M12.1047 21.345C12.1047 14.7176 17.4773 9.34497 24.1047 9.34497C30.7322 9.34497 36.1047 14.7176 36.1047 21.345C36.1047 23.0861 35.5233 25.0206 34.6976 26.8731C33.8625 28.7466 32.7305 30.6402 31.5227 32.3296C30.3165 34.0167 29.0079 35.5375 27.8014 36.6526C27.1998 37.2086 26.5964 37.689 26.021 38.0386C25.4819 38.3661 24.8083 38.6783 24.1047 38.6783C23.4012 38.6783 22.7276 38.3661 22.1885 38.0386C21.613 37.689 21.0097 37.2086 20.4081 36.6526C19.2016 35.5375 17.893 34.0167 16.6868 32.3296C15.4789 30.6402 14.347 28.7466 13.5119 26.8731C12.6862 25.0206 12.1047 23.0861 12.1047 21.345ZM24.1047 26.6783C27.0503 26.6783 29.4381 24.2905 29.4381 21.345C29.4381 18.3995 27.0503 16.0116 24.1047 16.0116C21.1592 16.0116 18.7714 18.3995 18.7714 21.345C18.7714 24.2905 21.1592 26.6783 24.1047 26.6783Z" fill="#0069C6"/>
</svg>
