<svg width="154" height="44" viewBox="0 0 154 44" fill="none" xmlns="http://www.w3.org/2000/svg">
<path d="M17.8282 25.9933C17.8282 25.3981 17.736 24.8666 17.5518 24.399C17.3818 23.9171 17.0629 23.4849 16.5952 23.1022C16.1417 22.7054 15.4969 22.3228 14.6608 21.9543C13.8388 21.5717 12.776 21.1749 11.4722 20.7639C10.0267 20.3104 8.68035 19.8002 7.43324 19.2334C6.18613 18.6665 5.08783 18.0075 4.13833 17.2564C3.203 16.5053 2.47316 15.6409 1.9488 14.663C1.42445 13.671 1.16228 12.5231 1.16228 11.2193C1.16228 9.94385 1.43154 8.78177 1.97006 7.73307C2.52276 6.68436 3.3022 5.78446 4.30839 5.03336C5.31458 4.26809 6.49791 3.67997 7.85839 3.26899C9.23304 2.85801 10.7494 2.65252 12.4075 2.65252C14.7033 2.65252 16.6873 3.07059 18.3596 3.90672C20.046 4.74284 21.3498 5.87658 22.271 7.30792C23.1921 8.73925 23.6527 10.3477 23.6527 12.1334H17.8282C17.8282 11.1697 17.6227 10.3194 17.2117 9.58247C16.8149 8.84554 16.2055 8.2645 15.3835 7.83935C14.5758 7.4142 13.5554 7.20163 12.3225 7.20163C11.132 7.20163 10.14 7.37877 9.34642 7.73307C8.56697 8.08736 7.97885 8.56919 7.58204 9.17858C7.19941 9.78796 7.00809 10.4682 7.00809 11.2193C7.00809 11.7862 7.14272 12.2963 7.41198 12.7498C7.68124 13.1892 8.08514 13.6072 8.62366 14.004C9.16218 14.3867 9.82825 14.748 10.6219 15.0882C11.4297 15.4141 12.365 15.7401 13.4279 16.066C15.1285 16.5762 16.6165 17.1431 17.8919 17.7666C19.1816 18.3902 20.2515 19.0987 21.1018 19.8924C21.9663 20.686 22.6111 21.5788 23.0362 22.5708C23.4756 23.5628 23.6952 24.6895 23.6952 25.9507C23.6952 27.2829 23.4331 28.4733 22.9087 29.522C22.3844 30.5707 21.6333 31.4635 20.6554 32.2005C19.6776 32.9374 18.5013 33.4972 17.1267 33.8798C15.7662 34.2624 14.2427 34.4538 12.5563 34.4538C11.0541 34.4538 9.56608 34.2553 8.09222 33.8585C6.63254 33.4476 5.30749 32.8382 4.11707 32.0304C2.92665 31.2084 1.97715 30.1739 1.26856 28.9268C0.55998 27.6655 0.205688 26.1917 0.205688 24.5052H6.07276C6.07276 25.4831 6.22865 26.3192 6.54042 27.0136C6.86637 27.6939 7.31987 28.2536 7.90091 28.693C8.49612 29.1181 9.19053 29.4299 9.98414 29.6283C10.7778 29.8267 11.6351 29.9259 12.5563 29.9259C13.7467 29.9259 14.7246 29.7629 15.4898 29.437C16.2693 29.0969 16.8503 28.6292 17.2329 28.034C17.6298 27.4388 17.8282 26.7585 17.8282 25.9933Z" fill="#00275B"/>
<path d="M33.3887 15.4495V42.8717H27.7554V11.028H32.9635L33.3887 15.4495ZM48.1626 22.2945V22.7409C48.1626 24.4131 47.9642 25.9649 47.5674 27.3963C47.1848 28.8134 46.6179 30.0534 45.8668 31.1163C45.1157 32.165 44.1804 32.987 43.0608 33.5822C41.9554 34.1632 40.68 34.4538 39.2345 34.4538C37.8173 34.4538 36.5844 34.1845 35.5357 33.646C34.487 33.0933 33.6012 32.3138 32.8785 31.3076C32.1557 30.3015 31.5747 29.1323 31.1354 27.8002C30.7102 26.4538 30.3913 24.9871 30.1788 23.3998V21.9756C30.3913 20.2892 30.7102 18.7586 31.1354 17.384C31.5747 15.9952 32.1557 14.7976 32.8785 13.7915C33.6012 12.7711 34.4799 11.9846 35.5144 11.4319C36.5631 10.8792 37.789 10.6028 39.192 10.6028C40.6516 10.6028 41.9342 10.8792 43.0396 11.4319C44.1591 11.9846 45.1015 12.7782 45.8668 13.8127C46.6321 14.8472 47.206 16.0802 47.5887 17.5115C47.9713 18.9429 48.1626 20.5372 48.1626 22.2945ZM42.5294 22.7409V22.2945C42.5294 21.2741 42.4373 20.3317 42.253 19.4672C42.0688 18.5886 41.7854 17.8233 41.4027 17.1714C41.0201 16.5053 40.5241 15.9881 39.9147 15.6196C39.3053 15.2511 38.5684 15.0669 37.7039 15.0669C36.8395 15.0669 36.0954 15.2086 35.4719 15.4921C34.8483 15.7755 34.3382 16.1794 33.9413 16.7037C33.5445 17.2281 33.2328 17.8516 33.006 18.5744C32.7934 19.283 32.6517 20.0695 32.5809 20.934V24.4627C32.7084 25.5114 32.9564 26.4538 33.3249 27.29C33.6933 28.1261 34.2319 28.7922 34.9405 29.2882C35.6632 29.7842 36.5985 30.0322 37.7464 30.0322C38.6109 30.0322 39.3478 29.8409 39.9572 29.4582C40.5666 29.0756 41.0626 28.5513 41.4452 27.8852C41.8279 27.2049 42.1042 26.4255 42.2743 25.5469C42.4444 24.6682 42.5294 23.7329 42.5294 22.7409Z" fill="#00275B"/>
<path d="M51.2662 22.7621V22.3157C51.2662 20.6293 51.5071 19.0775 51.989 17.6603C52.4708 16.229 53.1723 14.989 54.0935 13.9403C55.0146 12.8916 56.1413 12.0767 57.4734 11.4956C58.8055 10.9004 60.3219 10.6028 62.0225 10.6028C63.7515 10.6028 65.282 10.9004 66.6141 11.4956C67.9604 12.0767 69.0942 12.8916 70.0153 13.9403C70.9365 14.989 71.638 16.229 72.1198 17.6603C72.6017 19.0775 72.8426 20.6293 72.8426 22.3157V22.7621C72.8426 24.4344 72.6017 25.9862 72.1198 27.4175C71.638 28.8347 70.9365 30.0747 70.0153 31.1376C69.0942 32.1863 67.9675 33.0012 66.6354 33.5822C65.3033 34.1632 63.7798 34.4538 62.065 34.4538C60.3644 34.4538 58.841 34.1632 57.4947 33.5822C56.1484 33.0012 55.0146 32.1863 54.0935 31.1376C53.1723 30.0747 52.4708 28.8347 51.989 27.4175C51.5071 25.9862 51.2662 24.4344 51.2662 22.7621ZM56.8782 22.3157V22.7621C56.8782 23.7683 56.9774 24.7107 57.1758 25.5894C57.3742 26.468 57.6789 27.2404 58.0899 27.9064C58.5009 28.5725 59.0323 29.0969 59.6842 29.4795C60.3503 29.848 61.1439 30.0322 62.065 30.0322C62.972 30.0322 63.7515 29.848 64.4034 29.4795C65.0552 29.0969 65.5867 28.5725 65.9977 27.9064C66.4228 27.2404 66.7346 26.468 66.933 25.5894C67.1314 24.7107 67.2306 23.7683 67.2306 22.7621V22.3157C67.2306 21.3237 67.1314 20.3955 66.933 19.531C66.7346 18.6523 66.4228 17.88 65.9977 17.2139C65.5867 16.5337 65.0482 16.0022 64.3821 15.6196C63.7302 15.2228 62.9437 15.0244 62.0225 15.0244C61.1155 15.0244 60.3361 15.2228 59.6842 15.6196C59.0323 16.0022 58.5009 16.5337 58.0899 17.2139C57.6789 17.88 57.3742 18.6523 57.1758 19.531C56.9774 20.3955 56.8782 21.3237 56.8782 22.3157Z" fill="#00275B"/>
<path d="M82.536 15.7259V34.0286H76.924V11.028H82.2384L82.536 15.7259ZM89.5297 10.8792L89.4447 16.1085C89.1329 16.0518 88.7786 16.0093 88.3818 15.981C87.9992 15.9526 87.6378 15.9385 87.2977 15.9385C86.4332 15.9385 85.675 16.0589 85.0231 16.2998C84.3712 16.5266 83.8256 16.8596 83.3863 17.2989C82.9612 17.7383 82.6352 18.2768 82.4085 18.9145C82.1817 19.5381 82.0542 20.2467 82.0258 21.0403L80.8141 20.8915C80.8141 19.4318 80.9629 18.0784 81.2606 16.8313C81.5582 15.5842 81.9904 14.493 82.5573 13.5576C83.1241 12.6223 83.8327 11.8995 84.683 11.3894C85.5475 10.865 86.5395 10.6028 87.6591 10.6028C87.9708 10.6028 88.3039 10.6312 88.6582 10.6879C89.0266 10.7304 89.3171 10.7941 89.5297 10.8792Z" fill="#00275B"/>
<path d="M104.559 11.028V15.0669H91.3791V11.028H104.559ZM94.9079 5.37348H100.541V27.3963C100.541 28.0765 100.633 28.6009 100.817 28.9693C101.002 29.3378 101.278 29.5858 101.647 29.7133C102.015 29.8409 102.454 29.9046 102.964 29.9046C103.333 29.9046 103.673 29.8834 103.985 29.8409C104.297 29.7984 104.559 29.7558 104.771 29.7133L104.793 33.9223C104.325 34.0782 103.794 34.2057 103.198 34.3049C102.617 34.4042 101.958 34.4538 101.221 34.4538C99.9601 34.4538 98.8547 34.2412 97.9052 33.816C96.9557 33.3767 96.2188 32.6752 95.6944 31.7115C95.17 30.7337 94.9079 29.4441 94.9079 27.8427V5.37348Z" fill="#00275B"/>
<path d="M114.252 11.028V34.0286H108.619V11.028H114.252ZM108.236 5.01211C108.236 4.17598 108.52 3.48156 109.087 2.92887C109.668 2.37617 110.447 2.09983 111.425 2.09983C112.403 2.09983 113.175 2.37617 113.742 2.92887C114.323 3.48156 114.614 4.17598 114.614 5.01211C114.614 5.83406 114.323 6.52139 113.742 7.07408C113.175 7.62678 112.403 7.90313 111.425 7.90313C110.447 7.90313 109.668 7.62678 109.087 7.07408C108.52 6.52139 108.236 5.83406 108.236 5.01211Z" fill="#00275B"/>
<path d="M126.964 34.0286H121.31V8.90223C121.31 7.17329 121.643 5.72069 122.309 4.54444C122.975 3.35402 123.924 2.45412 125.157 1.84474C126.39 1.23535 127.843 0.930664 129.515 0.930664C130.068 0.930664 130.592 0.966093 131.088 1.03695C131.598 1.10781 132.101 1.20701 132.597 1.33456L132.491 5.60732C132.222 5.53646 131.924 5.48686 131.598 5.45851C131.287 5.43017 130.939 5.416 130.557 5.416C129.791 5.416 129.14 5.55063 128.601 5.81989C128.062 6.08915 127.652 6.48596 127.368 7.01031C127.099 7.52049 126.964 8.15113 126.964 8.90223V34.0286ZM131.62 11.028V15.0669H117.845V11.028H131.62Z" fill="#00275B"/>
<path d="M141.823 31.4777L147.988 11.028H154.004L144.778 37.5148C144.565 38.0817 144.289 38.6982 143.949 39.3642C143.623 40.0303 143.184 40.6609 142.631 41.2562C142.078 41.8655 141.384 42.3615 140.548 42.7442C139.726 43.1268 138.727 43.3181 137.55 43.3181C137.04 43.3181 136.587 43.2827 136.19 43.2118C135.793 43.141 135.375 43.0489 134.936 42.9355V38.7265C135.077 38.7407 135.24 38.7478 135.425 38.7478C135.623 38.7619 135.793 38.769 135.935 38.769C136.757 38.769 137.437 38.6698 137.976 38.4714C138.514 38.2872 138.946 37.9825 139.272 37.5573C139.612 37.1464 139.896 36.6078 140.123 35.9418L141.823 31.4777ZM138.783 11.028L143.991 27.9702L144.906 33.9011L141.037 34.6026L132.725 11.028H138.783Z" fill="#00275B"/>
</svg>
