<svg width="72" height="72" viewBox="0 0 72 72" fill="none" xmlns="http://www.w3.org/2000/svg">
<path d="M50.7239 6.65396L50.043 7.99047L50.7239 6.65396ZM53.346 9.27606L52.0095 9.95704L53.346 9.27606ZM21.2761 6.65396L21.957 7.99047L21.2761 6.65396ZM18.654 9.27606L19.9905 9.95704L18.654 9.27606ZM54 22.5C53.1716 22.5 52.5 23.1716 52.5 24C52.5 24.8284 53.1716 25.5 54 25.5V22.5ZM18 25.5C18.8284 25.5 19.5 24.8284 19.5 24C19.5 23.1716 18.8284 22.5 18 22.5V25.5ZM30 16.5C29.1716 16.5 28.5 17.1716 28.5 18C28.5 18.8284 29.1716 19.5 30 19.5V16.5ZM42 19.5C42.8284 19.5 43.5 18.8284 43.5 18C43.5 17.1716 42.8284 16.5 42 16.5V19.5ZM30 28.5C29.1716 28.5 28.5 29.1716 28.5 30C28.5 30.8284 29.1716 31.5 30 31.5V28.5ZM42 31.5C42.8284 31.5 43.5 30.8284 43.5 30C43.5 29.1716 42.8284 28.5 42 28.5V31.5ZM30 40.5C29.1716 40.5 28.5 41.1716 28.5 42C28.5 42.8284 29.1716 43.5 30 43.5V40.5ZM42 43.5C42.8284 43.5 43.5 42.8284 43.5 42C43.5 41.1716 42.8284 40.5 42 40.5V43.5ZM27.6 7.5H44.4V4.5H27.6V7.5ZM52.5 15.6V54H55.5V15.6H52.5ZM54 52.5H18V55.5H54V52.5ZM19.5 54V15.6H16.5V54H19.5ZM54 55.5H63V52.5H54V55.5ZM18 52.5H9V55.5H18V52.5ZM44.4 7.5C46.1049 7.5 47.2934 7.50117 48.2186 7.57676C49.1264 7.65093 49.6479 7.78919 50.043 7.99047L51.4049 5.31745C50.5165 4.86477 49.5562 4.67605 48.4629 4.58673C47.3872 4.49883 46.0554 4.5 44.4 4.5V7.5ZM55.5 15.6C55.5 13.9446 55.5012 12.6128 55.4133 11.5371C55.3239 10.4438 55.1352 9.48351 54.6825 8.59507L52.0095 9.95704C52.2108 10.3521 52.3491 10.8736 52.4232 11.7814C52.4988 12.7066 52.5 13.8951 52.5 15.6H55.5ZM50.043 7.99047C50.8897 8.4219 51.5781 9.11031 52.0095 9.95704L54.6825 8.59507C53.9635 7.18386 52.8161 6.0365 51.4049 5.31745L50.043 7.99047ZM27.6 4.5C25.9446 4.5 24.6128 4.49883 23.5371 4.58673C22.4438 4.67605 21.4835 4.86477 20.5951 5.31745L21.957 7.99047C22.3521 7.78919 22.8736 7.65093 23.7814 7.57676C24.7066 7.50117 25.8951 7.5 27.6 7.5V4.5ZM19.5 15.6C19.5 13.8951 19.5012 12.7066 19.5768 11.7814C19.6509 10.8736 19.7892 10.3521 19.9905 9.95704L17.3175 8.59507C16.8648 9.48351 16.6761 10.4438 16.5867 11.5371C16.4988 12.6128 16.5 13.9446 16.5 15.6H19.5ZM20.5951 5.31745C19.1839 6.0365 18.0365 7.18386 17.3175 8.59507L19.9905 9.95704C20.4219 9.11031 21.1103 8.4219 21.957 7.99047L20.5951 5.31745ZM54 25.5H57V22.5H54V25.5ZM61.5 30V60H64.5V30H61.5ZM57 64.5H15V67.5H57V64.5ZM10.5 60V30H7.5V60H10.5ZM15 25.5H18V22.5H15V25.5ZM10.5 30C10.5 27.5147 12.5147 25.5 15 25.5V22.5C10.8579 22.5 7.5 25.8579 7.5 30H10.5ZM15 64.5C12.5147 64.5 10.5 62.4853 10.5 60H7.5C7.5 64.1421 10.8579 67.5 15 67.5V64.5ZM61.5 60C61.5 62.4853 59.4853 64.5 57 64.5V67.5C61.1421 67.5 64.5 64.1421 64.5 60H61.5ZM57 25.5C59.4853 25.5 61.5 27.5147 61.5 30H64.5C64.5 25.8579 61.1421 22.5 57 22.5V25.5ZM30 19.5H42V16.5H30V19.5ZM30 31.5H42V28.5H30V31.5ZM30 43.5H42V40.5H30V43.5Z" fill="black"/>
</svg>
