<svg width="1561" height="397" viewBox="0 0 1561 397" fill="none" xmlns="http://www.w3.org/2000/svg">
<g filter="url(#filter0_d_116_2973)">
<path d="M321.765 187.026V206.436C321.765 234.902 317.969 260.522 310.378 283.296C302.787 305.897 292.004 325.133 278.029 341.006C264.055 356.878 247.406 369.041 228.083 377.495C208.76 385.949 187.281 390.176 163.645 390.176C140.354 390.176 118.96 385.949 99.4648 377.495C80.1419 369.041 63.4069 356.878 49.2598 341.006C35.1126 325.133 24.1572 305.897 16.3936 283.296C8.62988 260.522 4.74805 234.902 4.74805 206.436V187.026C4.74805 158.387 8.62988 132.767 16.3936 110.166C24.1572 87.5651 35.0264 68.3285 49.001 52.4561C62.9756 36.4111 79.6243 24.1618 98.9473 15.708C118.443 7.25423 139.836 3.02734 163.127 3.02734C186.763 3.02734 208.243 7.25423 227.565 15.708C246.888 24.1618 263.537 36.4111 277.512 52.4561C291.659 68.3285 302.528 87.5651 310.119 110.166C317.883 132.767 321.765 158.387 321.765 187.026ZM249.821 206.436V186.509C249.821 165.978 247.924 147.949 244.128 132.422C240.332 116.722 234.725 103.524 227.307 92.8271C219.888 82.1305 210.744 74.1081 199.875 68.7598C189.006 63.2389 176.757 60.4785 163.127 60.4785C149.325 60.4785 137.076 63.2389 126.379 68.7598C115.855 74.1081 106.883 82.1305 99.4648 92.8271C92.0462 103.524 86.3529 116.722 82.3848 132.422C78.5892 147.949 76.6914 165.978 76.6914 186.509V206.436C76.6914 226.794 78.5892 244.823 82.3848 260.522C86.3529 276.222 92.0462 289.507 99.4648 300.376C107.056 311.073 116.2 319.181 126.896 324.702C137.593 330.223 149.842 332.983 163.645 332.983C177.447 332.983 189.696 330.223 200.393 324.702C211.089 319.181 220.061 311.073 227.307 300.376C234.725 289.507 240.332 276.222 244.128 260.522C247.924 244.823 249.821 226.794 249.821 206.436Z" fill="white" fill-opacity="0.55" shape-rendering="crispEdges"/>
<path d="M774.635 163.735V219.634H576.403V163.735H774.635ZM595.812 8.20312V385H524.645V8.20312H595.812ZM827.428 8.20312V385H756.261V8.20312H827.428Z" fill="white" fill-opacity="0.55" shape-rendering="crispEdges"/>
<path d="M1059.69 65.3955L952.289 385H876.981L1017.76 8.20312H1065.9L1059.69 65.3955ZM1149.49 385L1041.57 65.3955L1035.1 8.20312H1083.49L1225.05 385H1149.49ZM1144.57 244.995V301.152H942.455V244.995H1144.57Z" fill="white" fill-opacity="0.55" shape-rendering="crispEdges"/>
<path d="M1485 261.04H1556.17C1554.27 286.229 1547.28 308.571 1535.21 328.066C1523.13 347.389 1506.31 362.572 1484.74 373.613C1463.18 384.655 1437.04 390.176 1406.33 390.176C1382.69 390.176 1361.39 386.035 1342.41 377.754C1323.6 369.3 1307.47 357.31 1294.01 341.782C1280.73 326.082 1270.55 307.277 1263.48 285.366C1256.4 263.283 1252.87 238.525 1252.87 211.094V182.368C1252.87 154.937 1256.49 130.179 1263.74 108.096C1270.98 86.0124 1281.33 67.207 1294.79 51.6797C1308.42 35.9798 1324.72 23.903 1343.7 15.4492C1362.85 6.99544 1384.25 2.76855 1407.88 2.76855C1438.59 2.76855 1464.56 8.46191 1485.78 19.8486C1507 31.0628 1523.47 46.5039 1535.21 66.1719C1546.94 85.8398 1554.01 108.441 1556.43 133.975H1485.26C1483.88 118.102 1480.43 104.645 1474.91 93.6035C1469.56 82.5618 1461.45 74.1943 1450.58 68.501C1439.89 62.6351 1425.65 59.7021 1407.88 59.7021C1394.08 59.7021 1381.92 62.29 1371.39 67.4658C1361.04 72.6416 1352.41 80.4053 1345.51 90.7568C1338.61 100.936 1333.44 113.703 1329.99 129.058C1326.54 144.24 1324.81 161.838 1324.81 181.851V211.094C1324.81 230.244 1326.36 247.41 1329.47 262.593C1332.57 277.775 1337.4 290.628 1343.96 301.152C1350.52 311.676 1358.97 319.699 1369.32 325.22C1379.67 330.741 1392.01 333.501 1406.33 333.501C1423.75 333.501 1437.9 330.741 1448.77 325.22C1459.81 319.699 1468.18 311.59 1473.87 300.894C1479.74 290.197 1483.45 276.912 1485 261.04Z" fill="white" fill-opacity="0.55" shape-rendering="crispEdges"/>
</g>
<defs>
<filter id="filter0_d_116_2973" x="0.748047" y="0.768555" width="1559.68" height="395.407" filterUnits="userSpaceOnUse" color-interpolation-filters="sRGB">
<feFlood flood-opacity="0" result="BackgroundImageFix"/>
<feColorMatrix in="SourceAlpha" type="matrix" values="0 0 0 0 0 0 0 0 0 0 0 0 0 0 0 0 0 0 127 0" result="hardAlpha"/>
<feOffset dy="2"/>
<feGaussianBlur stdDeviation="2"/>
<feComposite in2="hardAlpha" operator="out"/>
<feColorMatrix type="matrix" values="0 0 0 0 0 0 0 0 0 0.411399 0 0 0 0 0.775781 0 0 0 0.15 0"/>
<feBlend mode="normal" in2="BackgroundImageFix" result="effect1_dropShadow_116_2973"/>
<feBlend mode="normal" in="SourceGraphic" in2="effect1_dropShadow_116_2973" result="shape"/>
</filter>
</defs>
</svg>
